<svg width="19" height="22" viewBox="0 0 19 22" fill="none" xmlns="http://www.w3.org/2000/svg">
<path d="M2.11111 21.1111C1.53056 21.1111 1.03356 20.9044 0.620139 20.491C0.206713 20.0775 0 19.5806 0 19V4.22222C0 3.64167 0.206713 3.14468 0.620139 2.73125C1.03356 2.31782 1.53056 2.11111 2.11111 2.11111H3.16667V1.05556C3.16667 0.756481 3.26782 0.505787 3.47014 0.303472C3.67245 0.101157 3.92315 0 4.22222 0C4.5213 0 4.77199 0.101157 4.97431 0.303472C5.17662 0.505787 5.27778 0.756481 5.27778 1.05556V2.11111H13.7222V1.05556C13.7222 0.756481 13.8234 0.505787 14.0257 0.303472C14.228 0.101157 14.4787 0 14.7778 0C15.0769 0 15.3275 0.101157 15.5299 0.303472C15.7322 0.505787 15.8333 0.756481 15.8333 1.05556V2.11111H16.8889C17.4694 2.11111 17.9664 2.31782 18.3799 2.73125C18.7933 3.14468 19 3.64167 19 4.22222V19C19 19.5806 18.7933 20.0775 18.3799 20.491C17.9664 20.9044 17.4694 21.1111 16.8889 21.1111H2.11111ZM2.11111 19H16.8889V8.44444H2.11111V19ZM2.11111 6.33333H16.8889V4.22222H2.11111V6.33333ZM9.5 12.6667C9.20093 12.6667 8.95023 12.5655 8.74792 12.3632C8.5456 12.1609 8.44444 11.9102 8.44444 11.6111C8.44444 11.312 8.5456 11.0613 8.74792 10.859C8.95023 10.6567 9.20093 10.5556 9.5 10.5556C9.79907 10.5556 10.0498 10.6567 10.2521 10.859C10.4544 11.0613 10.5556 11.312 10.5556 11.6111C10.5556 11.9102 10.4544 12.1609 10.2521 12.3632C10.0498 12.5655 9.79907 12.6667 9.5 12.6667ZM5.27778 12.6667C4.9787 12.6667 4.72801 12.5655 4.52569 12.3632C4.32338 12.1609 4.22222 11.9102 4.22222 11.6111C4.22222 11.312 4.32338 11.0613 4.52569 10.859C4.72801 10.6567 4.9787 10.5556 5.27778 10.5556C5.57685 10.5556 5.82755 10.6567 6.02986 10.859C6.23218 11.0613 6.33333 11.312 6.33333 11.6111C6.33333 11.9102 6.23218 12.1609 6.02986 12.3632C5.82755 12.5655 5.57685 12.6667 5.27778 12.6667ZM13.7222 12.6667C13.4231 12.6667 13.1725 12.5655 12.9701 12.3632C12.7678 12.1609 12.6667 11.9102 12.6667 11.6111C12.6667 11.312 12.7678 11.0613 12.9701 10.859C13.1725 10.6567 13.4231 10.5556 13.7222 10.5556C14.0213 10.5556 14.272 10.6567 14.4743 10.859C14.6766 11.0613 14.7778 11.312 14.7778 11.6111C14.7778 11.9102 14.6766 12.1609 14.4743 12.3632C14.272 12.5655 14.0213 12.6667 13.7222 12.6667ZM9.5 16.8889C9.20093 16.8889 8.95023 16.7877 8.74792 16.5854C8.5456 16.3831 8.44444 16.1324 8.44444 15.8333C8.44444 15.5343 8.5456 15.2836 8.74792 15.0812C8.95023 14.8789 9.20093 14.7778 9.5 14.7778C9.79907 14.7778 10.0498 14.8789 10.2521 15.0812C10.4544 15.2836 10.5556 15.5343 10.5556 15.8333C10.5556 16.1324 10.4544 16.3831 10.2521 16.5854C10.0498 16.7877 9.79907 16.8889 9.5 16.8889ZM5.27778 16.8889C4.9787 16.8889 4.72801 16.7877 4.52569 16.5854C4.32338 16.3831 4.22222 16.1324 4.22222 15.8333C4.22222 15.5343 4.32338 15.2836 4.52569 15.0812C4.72801 14.8789 4.9787 14.7778 5.27778 14.7778C5.57685 14.7778 5.82755 14.8789 6.02986 15.0812C6.23218 15.2836 6.33333 15.5343 6.33333 15.8333C6.33333 16.1324 6.23218 16.3831 6.02986 16.5854C5.82755 16.7877 5.57685 16.8889 5.27778 16.8889ZM13.7222 16.8889C13.4231 16.8889 13.1725 16.7877 12.9701 16.5854C12.7678 16.3831 12.6667 16.1324 12.6667 15.8333C12.6667 15.5343 12.7678 15.2836 12.9701 15.0812C13.1725 14.8789 13.4231 14.7778 13.7222 14.7778C14.0213 14.7778 14.272 14.8789 14.4743 15.0812C14.6766 15.2836 14.7778 15.5343 14.7778 15.8333C14.7778 16.1324 14.6766 16.3831 14.4743 16.5854C14.272 16.7877 14.0213 16.8889 13.7222 16.8889Z" fill="#006EE6"/>
</svg>
