<svg width="40" height="27" viewBox="0 0 40 27" fill="none" xmlns="http://www.w3.org/2000/svg">
<path d="M6.09463 6.26226V9.72708L4.20754 9.75802L4.20754 17.6776L6.09463 17.7086L6.09463 21.2352L4.20754 21.2662C3.25884 21.2662 2.43904 20.9104 1.74814 20.1989C1.05723 19.4874 0.711783 18.6573 0.711783 17.7086L0.711782 9.72708C0.711782 8.77838 1.05723 7.95858 1.74814 7.26768C2.43904 6.57678 3.25884 6.23132 4.20754 6.23132L6.09463 6.26226ZM35.8241 6.23132C36.7728 6.23132 37.5926 6.57678 38.2835 7.26768C38.9744 7.95858 39.3198 8.77838 39.3198 9.72708L39.3198 17.7086C39.3198 18.6573 38.9744 19.4771 38.2835 20.168C37.5926 20.8589 36.7728 21.2043 35.8241 21.2043L33.9679 21.2043L33.9679 17.6776L35.855 17.7086L35.855 9.72708L33.9679 9.75802L33.9679 6.23132H35.8241ZM13.148 4.34423L9.62133 4.34423L9.62133 23.0914L13.148 23.0914L13.148 4.34423ZM30.4721 4.34423L26.9145 4.37517L26.9145 23.0605L30.4721 23.0914L30.4721 4.34423ZM23.4187 11.7689L16.6438 11.7379L16.6438 15.6977L23.4188 15.6668L23.4187 11.7689ZM30.4412 0.848473C31.3899 0.848473 32.2149 1.19908 32.9161 1.9003C33.6173 2.60151 33.9679 3.42647 33.9679 4.37517L33.9679 23.0605C33.9679 24.0092 33.6173 24.8341 32.9161 25.5353C32.2149 26.2366 31.3899 26.5872 30.4412 26.5872L26.9145 26.5872C25.9658 26.5872 25.146 26.2417 24.4551 25.5508C23.7642 24.8599 23.4187 24.0401 23.4187 23.0914L23.4187 19.1935L16.6128 19.1935L16.6438 23.0605C16.6438 24.0092 16.2932 24.8341 15.592 25.5353C14.8907 26.2366 14.0658 26.5872 13.1171 26.5872L9.59039 26.5872C8.64169 26.5872 7.82189 26.2417 7.13099 25.5508C6.44008 24.8599 6.09463 24.0401 6.09463 23.0914L6.09463 4.34423C6.09463 3.39553 6.44009 2.57573 7.13099 1.88483C7.82189 1.19392 8.64169 0.848473 9.59039 0.848473L13.1171 0.848475C14.0658 0.848475 14.8907 1.19908 15.592 1.9003C16.2932 2.60151 16.6438 3.42647 16.6438 4.37517L16.6128 8.24216L23.4187 8.24216L23.4187 4.34423C23.4187 3.39553 23.7642 2.57573 24.4551 1.88483C25.146 1.19392 25.9658 0.848475 26.9145 0.848475L30.4412 0.848473Z"/>
</svg>
