<svg width="40" height="20" viewBox="0 0 40 20" fill="none" xmlns="http://www.w3.org/2000/svg">
<path d="M1.38888 20C0.995375 20 0.665514 19.8669 0.399292 19.6007C0.133097 19.3345 0 19.0046 0 18.6111V17.6528C0 16.5404 0.587958 15.635 1.76388 14.9366C2.93982 14.2381 4.48497 13.8889 6.39933 13.8889C6.74497 13.8889 7.07733 13.8959 7.39642 13.9098C7.71547 13.9236 8.02778 13.9551 8.33333 14.0042C8.05556 14.5199 7.84722 15.0492 7.70833 15.5921C7.56944 16.135 7.5 16.7016 7.5 17.2917V20H1.38888ZM11.3889 20C10.9954 20 10.6655 19.8669 10.3993 19.6007C10.1331 19.3345 10 19.0046 10 18.6111V17.2917C10 16.4028 10.2431 15.5903 10.7292 14.8542C11.2153 14.1181 11.9028 13.4722 12.7917 12.9167C13.6806 12.3611 14.7431 11.9444 15.9792 11.6667C17.2153 11.3889 18.5556 11.25 20 11.25C21.4722 11.25 22.8264 11.3889 24.0625 11.6667C25.2986 11.9444 26.3611 12.3611 27.25 12.9167C28.1389 13.4722 28.8194 14.1181 29.2917 14.8542C29.7639 15.5903 30 16.4028 30 17.2917V18.6111C30 19.0046 29.8669 19.3345 29.6007 19.6007C29.3345 19.8669 29.0046 20 28.6111 20H11.3889ZM32.5 20V17.2917C32.5 16.6831 32.4375 16.1097 32.3125 15.5714C32.1875 15.0331 31.9908 14.5114 31.7223 14.0063C32.0278 13.9558 32.3373 13.9236 32.6506 13.9098C32.964 13.8959 33.2841 13.8889 33.6111 13.8889C35.5278 13.8889 37.0718 14.2317 38.243 14.9172C39.4143 15.6027 40 16.5146 40 17.6528V18.6111C40 19.0046 39.8669 19.3345 39.6007 19.6007C39.3345 19.8669 39.0046 20 38.6111 20H32.5ZM12.8472 17.2223H27.1667V17.0556C27.0741 16.1852 26.3496 15.463 24.9931 14.8889C23.6366 14.3148 21.9722 14.0277 20 14.0277C18.0278 14.0277 16.3634 14.3148 15.0069 14.8889C13.6504 15.463 12.9305 16.1944 12.8472 17.0833V17.2223ZM6.37688 12.5C5.54229 12.5 4.82639 12.2008 4.22917 11.6025C3.63194 11.0041 3.33333 10.2847 3.33333 9.44446C3.33333 8.59262 3.63253 7.87042 4.23092 7.27783C4.82928 6.68522 5.5486 6.38892 6.38887 6.38892C7.24074 6.38892 7.96296 6.68522 8.55554 7.27783C9.14812 7.87042 9.44442 8.59664 9.44442 9.4565C9.44442 10.2911 9.14812 11.007 8.55554 11.6042C7.96296 12.2014 7.23674 12.5 6.37688 12.5ZM33.5991 12.5C32.7645 12.5 32.0486 12.2008 31.4514 11.6025C30.8542 11.0041 30.5556 10.2847 30.5556 9.44446C30.5556 8.59262 30.8548 7.87042 31.4531 7.27783C32.0515 6.68522 32.7708 6.38892 33.6111 6.38892C34.463 6.38892 35.1852 6.68522 35.7778 7.27783C36.3704 7.87042 36.6667 8.59664 36.6667 9.4565C36.6667 10.2911 36.3704 11.007 35.7778 11.6042C35.1852 12.2014 34.4589 12.5 33.5991 12.5ZM20 10C18.6111 10 17.4306 9.51389 16.4583 8.54167C15.4861 7.56944 15 6.38889 15 5C15 3.58333 15.4861 2.39583 16.4583 1.4375C17.4306 0.479167 18.6111 0 20 0C21.4167 0 22.6042 0.479167 23.5625 1.4375C24.5208 2.39583 25 3.58333 25 5C25 6.38889 24.5208 7.56944 23.5625 8.54167C22.6042 9.51389 21.4167 10 20 10ZM20.0098 7.22225C20.6421 7.22225 21.169 7.00835 21.5903 6.58054C22.0116 6.15274 22.2223 5.62264 22.2223 4.99025C22.2223 4.35786 22.0102 3.83101 21.5862 3.40971C21.1621 2.9884 20.6366 2.77775 20.0098 2.77775C19.3829 2.77775 18.8542 2.98978 18.4236 3.41383C17.993 3.83792 17.7777 4.36339 17.7777 4.99025C17.7777 5.61711 17.9917 6.14583 18.4195 6.57642C18.8473 7.00697 19.3774 7.22225 20.0098 7.22225Z" />
</svg>
