<svg width="232" height="63" viewBox="0 0 232 63" fill="none" xmlns="http://www.w3.org/2000/svg">
<g clip-path="url(#clip0_519_134)">
<path d="M221.553 34.2L220.511 32.4L224.4 30.1846C227.595 28.4308 229.193 25.6385 229.193 21.8077C229.193 14.6538 223.729 11.0769 212.802 11.0769H206.412V63H204.329V9H212.802C218.914 9 223.521 10.1308 226.623 12.3923C229.725 14.6077 231.276 17.7462 231.276 21.8077C231.276 26.4231 229.331 29.8154 225.442 31.9846L221.553 34.2Z" fill="black"/>
<path d="M184.813 34.2L183.771 32.4L187.66 30.1846C190.855 28.4308 192.452 25.6385 192.452 21.8077C192.452 14.6538 186.989 11.0769 176.062 11.0769H169.672V63H167.588V9H176.062C182.173 9 186.78 10.1308 189.883 12.3923C192.985 14.6077 194.536 17.7462 194.536 21.8077C194.536 26.4231 192.591 29.8154 188.702 31.9846L184.813 34.2Z" fill="black"/>
<path d="M131.195 47.0769H156.754L142.03 6.71534L126.542 49.1538H124.32L142.03 0.623047L159.74 49.1538H131.195V47.0769Z" fill="black"/>
<path d="M87.5794 47.0769H114.388V11.9077L98.7612 27.4846L83.1345 11.9077V49.1538L81.0508 49.0845V8.99991H83.1345L98.7612 24.5768L114.388 8.99991H116.472V49.1537L87.5794 49.0844V47.0769Z" fill="black"/>
<path d="M46.394 9H73.272L56.9507 47.4231V63H54.8672V47.4231L38.5459 9H40.7683L55.9089 44.5154L70.1466 11.0769H46.394V9Z" fill="black"/>
<path d="M29.795 10.4538C28.73 7.77691 27.2252 5.72307 25.2806 4.2923C23.3359 2.81539 20.3032 2.07693 16.1824 2.07693C13.9136 2.07693 11.9689 2.37693 10.3484 2.97692C8.7278 3.53076 7.26931 4.49998 5.97288 5.88459C4.67644 7.2692 3.70412 9.27693 3.05591 11.9077C2.40768 14.4923 2.08355 17.7 2.08355 21.5308V28.3153C2.08355 32.1461 2.40768 35.3769 3.05591 38.0076C3.70412 40.5923 4.67644 42.5769 5.97288 43.9615C7.26931 45.3461 8.7278 46.3384 10.3484 46.9384C11.9689 47.4923 13.9136 47.7692 16.1824 47.7692C20.3495 47.7692 23.66 46.8923 26.114 45.1384C28.568 43.3384 29.795 41.423 29.795 39.3923V27.6922H21.2524V25.6154H32.2953V38.7C32.2953 41.7923 30.8831 44.423 28.0587 46.5922C25.2806 48.7615 21.3218 49.8461 16.1824 49.8461C10.4873 49.8461 6.36645 48.1153 3.81987 44.6538C1.27328 41.1461 0 35.7 0 28.3153V21.5308C0 14.1462 1.27328 8.72309 3.81987 5.26154C6.36645 1.75385 10.4873 0 16.1824 0C20.7662 0 24.1925 0.853831 26.4613 2.56152C28.73 4.22306 30.4895 6.59999 31.7396 9.69229L29.795 10.4538Z" fill="black"/>
</g>
<defs>
<clipPath id="clip0_519_134">
<rect width="231.276" height="63" fill="white"/>
</clipPath>
</defs>
</svg>
