<svg width="32" height="40" viewBox="0 0 32 40" fill="none" xmlns="http://www.w3.org/2000/svg">
<path d="M14 26V30C14 30.5667 14.1917 31.0417 14.575 31.425C14.9583 31.8083 15.4333 32 16 32C16.5667 32 17.0417 31.8083 17.425 31.425C17.8083 31.0417 18 30.5667 18 30V26H22C22.5667 26 23.0417 25.8083 23.425 25.425C23.8083 25.0417 24 24.5667 24 24C24 23.4333 23.8083 22.9583 23.425 22.575C23.0417 22.1917 22.5667 22 22 22H18V18C18 17.4333 17.8083 16.9583 17.425 16.575C17.0417 16.1917 16.5667 16 16 16C15.4333 16 14.9583 16.1917 14.575 16.575C14.1917 16.9583 14 17.4333 14 18V22H10C9.43333 22 8.95833 22.1917 8.575 22.575C8.19167 22.9583 8 23.4333 8 24C8 24.5667 8.19167 25.0417 8.575 25.425C8.95833 25.8083 9.43333 26 10 26H14ZM4 40C2.9 40 1.95833 39.6083 1.175 38.825C0.391667 38.0417 0 37.1 0 36V4C0 2.9 0.391667 1.95833 1.175 1.175C1.95833 0.391667 2.9 0 4 0H18.35C18.8833 0 19.3917 0.1 19.875 0.3C20.3583 0.5 20.7833 0.783333 21.15 1.15L30.85 10.85C31.2167 11.2167 31.5 11.6417 31.7 12.125C31.9 12.6083 32 13.1167 32 13.65V36C32 37.1 31.6083 38.0417 30.825 38.825C30.0417 39.6083 29.1 40 28 40H4ZM18 12V4H4V36H28V14H20C19.4333 14 18.9583 13.8083 18.575 13.425C18.1917 13.0417 18 12.5667 18 12Z" fill="#006EE6"/>
</svg>
