<svg width="20" height="18" viewBox="0 0 20 18" fill="none" xmlns="http://www.w3.org/2000/svg">
<path d="M7.39687 13.3144C5.32954 13.3144 3.5799 12.67 2.14794 11.3812C0.715979 10.0925 0 8.51778 0 6.65718C0 4.79659 0.715979 3.22191 2.14794 1.93314C3.5799 0.644381 5.32954 0 7.39687 0C9.4642 0 11.2138 0.644381 12.6458 1.93314C14.0778 3.22191 14.7937 4.79659 14.7937 6.65718C14.7937 7.40825 14.661 8.11664 14.3954 8.78236C14.1299 9.44808 13.7696 10.037 13.3144 10.5491L19.6871 16.2845C19.8957 16.4723 20 16.7112 20 17.0014C20 17.2916 19.8957 17.5306 19.6871 17.7183C19.4784 17.9061 19.2129 18 18.8905 18C18.568 18 18.3025 17.9061 18.0939 17.7183L11.7212 11.9829C11.1522 12.3926 10.4979 12.7169 9.75818 12.9559C9.01849 13.1949 8.23139 13.3144 7.39687 13.3144ZM7.39687 11.266C8.81935 11.266 10.0284 10.8179 11.0242 9.92176C12.0199 9.0256 12.5178 7.93741 12.5178 6.65718C12.5178 5.37696 12.0199 4.28876 11.0242 3.3926C10.0284 2.49644 8.81935 2.04836 7.39687 2.04836C5.9744 2.04836 4.76529 2.49644 3.76956 3.3926C2.77383 4.28876 2.27596 5.37696 2.27596 6.65718C2.27596 7.93741 2.77383 9.0256 3.76956 9.92176C4.76529 10.8179 5.9744 11.266 7.39687 11.266Z" fill="#989898"/>
</svg>
