<svg width="32" height="21" viewBox="0 0 32 21" fill="none" xmlns="http://www.w3.org/2000/svg">
<path d="M1.75 21C1.25417 21 0.838542 20.8323 0.503125 20.4969C0.167708 20.1615 0 19.7458 0 19.25C0 18.7542 0.167708 18.3385 0.503125 18.0031C0.838542 17.6677 1.25417 17.5 1.75 17.5H29.75C30.2458 17.5 30.6615 17.6677 30.9969 18.0031C31.3323 18.3385 31.5 18.7542 31.5 19.25C31.5 19.7458 31.3323 20.1615 30.9969 20.4969C30.6615 20.8323 30.2458 21 29.75 21H1.75ZM1.75 12.25C1.25417 12.25 0.838542 12.0823 0.503125 11.7469C0.167708 11.4115 0 10.9958 0 10.5C0 10.0042 0.167708 9.58854 0.503125 9.25313C0.838542 8.91771 1.25417 8.75 1.75 8.75H29.75C30.2458 8.75 30.6615 8.91771 30.9969 9.25313C31.3323 9.58854 31.5 10.0042 31.5 10.5C31.5 10.9958 31.3323 11.4115 30.9969 11.7469C30.6615 12.0823 30.2458 12.25 29.75 12.25H1.75ZM1.75 3.5C1.25417 3.5 0.838542 3.33229 0.503125 2.99688C0.167708 2.66146 0 2.24583 0 1.75C0 1.25417 0.167708 0.838542 0.503125 0.503125C0.838542 0.167708 1.25417 0 1.75 0H29.75C30.2458 0 30.6615 0.167708 30.9969 0.503125C31.3323 0.838542 31.5 1.25417 31.5 1.75C31.5 2.24583 31.3323 2.66146 30.9969 2.99688C30.6615 3.33229 30.2458 3.5 29.75 3.5H1.75Z"/>
</svg>
