<svg width="40" height="40" viewBox="0 0 40 40" fill="none" xmlns="http://www.w3.org/2000/svg">
<path d="M24 24C24.5667 24 25.0417 23.8083 25.425 23.425C25.8083 23.0417 26 22.5667 26 22V18H30C30.5667 18 31.0417 17.8083 31.425 17.425C31.8083 17.0417 32 16.5667 32 16C32 15.4333 31.8083 14.9583 31.425 14.575C31.0417 14.1917 30.5667 14 30 14H26V10C26 9.43333 25.8083 8.95833 25.425 8.575C25.0417 8.19167 24.5667 8 24 8C23.4333 8 22.9583 8.19167 22.575 8.575C22.1917 8.95833 22 9.43333 22 10V14H18C17.4333 14 16.9583 14.1917 16.575 14.575C16.1917 14.9583 16 15.4333 16 16C16 16.5667 16.1917 17.0417 16.575 17.425C16.9583 17.8083 17.4333 18 18 18H22V22C22 22.5667 22.1917 23.0417 22.575 23.425C22.9583 23.8083 23.4333 24 24 24ZM12 32C10.9 32 9.95833 31.6083 9.175 30.825C8.39167 30.0417 8 29.1 8 28V4C8 2.9 8.39167 1.95833 9.175 1.175C9.95833 0.391667 10.9 0 12 0H36C37.1 0 38.0417 0.391667 38.825 1.175C39.6083 1.95833 40 2.9 40 4V28C40 29.1 39.6083 30.0417 38.825 30.825C38.0417 31.6083 37.1 32 36 32H12ZM12 28H36V4H12V28ZM4 40C2.9 40 1.95833 39.6083 1.175 38.825C0.391667 38.0417 0 37.1 0 36V10C0 9.43333 0.191667 8.95833 0.575 8.575C0.958333 8.19167 1.43333 8 2 8C2.56667 8 3.04167 8.19167 3.425 8.575C3.80833 8.95833 4 9.43333 4 10V36H30C30.5667 36 31.0417 36.1917 31.425 36.575C31.8083 36.9583 32 37.4333 32 38C32 38.5667 31.8083 39.0417 31.425 39.425C31.0417 39.8083 30.5667 40 30 40H4Z" fill="#006EE6"/>
</svg>
