<svg width="32" height="35" viewBox="0 0 32 35" fill="none" xmlns="http://www.w3.org/2000/svg">
<path d="M10.5 25.375C9.275 25.375 8.23958 24.9521 7.39375 24.1062C6.54792 23.2604 6.125 22.225 6.125 21C6.125 19.775 6.54792 18.7396 7.39375 17.8937C8.23958 17.0479 9.275 16.625 10.5 16.625C11.725 16.625 12.7604 17.0479 13.6062 17.8937C14.4521 18.7396 14.875 19.775 14.875 21C14.875 22.225 14.4521 23.2604 13.6062 24.1062C12.7604 24.9521 11.725 25.375 10.5 25.375ZM3.5 35C2.5375 35 1.71354 34.6573 1.02812 33.9719C0.342708 33.2865 0 32.4625 0 31.5V7C0 6.0375 0.342708 5.21354 1.02812 4.52812C1.71354 3.84271 2.5375 3.5 3.5 3.5H5.25V0H8.75V3.5H22.75V0H26.25V3.5H28C28.9625 3.5 29.7865 3.84271 30.4719 4.52812C31.1573 5.21354 31.5 6.0375 31.5 7V31.5C31.5 32.4625 31.1573 33.2865 30.4719 33.9719C29.7865 34.6573 28.9625 35 28 35H3.5ZM3.5 31.5H28V14H3.5V31.5ZM3.5 10.5H28V7H3.5V10.5Z"/>
</svg>
